# Wavefront OBJ file
# Exported by Misfit Model 3D 1.2.4
# Wed Dec 20 20:05:00 2023

mtllib Bush_00.mtl

# 56 Vertices
v 2.85686 2.74285 -1.991058
v -0.109329 -0.109044 -1.991058
v 2.840105 2.760965 1.870398
v -0.126083 -0.090929 1.870398
v -1.950596 4.004155 -0.000017
v -1.950596 -0.152717 -0.000017
v 1.837279 4.004155 -0.000017
v 1.837279 -0.152717 -0.000017
v 0.01508 4.004155 -1.991041
v 0.01508 -0.152717 -1.991041
v -0.00934 4.004155 1.870416
v -0.00934 -0.152717 1.870416
v 1.64457 3.63662 -1.987447
v -0.053137 -0.142715 -1.987447
v 1.622366 3.646988 1.874009
v -0.07534 -0.132347 1.874009
v -1.945762 3.63662 -1.672021
v -1.948759 -0.142715 0.058697
v 1.84199 3.646988 -1.642568
v 1.838991 -0.132347 0.088149
v -1.62709 3.63662 2.002025
v 0.070599 -0.142715 1.994318
v -1.621757 3.646988 -1.859494
v 0.075932 -0.132347 -1.867202
v 1.957398 3.63662 1.675691
v 1.957426 -0.142715 -0.05503
v -1.830396 3.646988 1.652994
v -1.83037 -0.132347 -0.077726
v -1.982017 2.89987 -2.730882
v -1.949155 -0.118913 0.126248
v 1.805733 2.923976 -2.750696
v 1.838597 -0.094807 0.106434
v -2.852777 2.764254 1.959871
v 0.094975 -0.107262 1.992134
v -2.799825 2.777367 -1.901267
v 0.147927 -0.094149 -1.869003
v 1.990889 2.908307 2.718984
v 1.954035 -0.119769 -0.128246
v -1.796831 2.933342 2.743318
v -1.833685 -0.094734 -0.103912
v 0.579918 1.332821 -3.470819
v -1.379596 -0.007509 -1.405849
v 3.290976 1.347394 -0.774043
v 1.331463 0.007064 1.290928
v -3.395647 1.332821 -0.625911
v -1.391239 -0.007509 1.393782
v -0.721336 1.347394 -3.360555
v 1.283072 0.007064 -1.340862
v -0.463062 1.332821 3.488164
v 1.429072 -0.007509 1.358885
v -3.259292 1.347394 0.883337
v -1.367159 0.007064 -1.245941
v 3.395459 1.332821 0.654765
v 1.407673 -0.007509 -1.381931
v 0.698826 1.347394 3.366534
v -1.288957 0.007064 1.329838

# 84 Texture Coordinates
vt 0.0 1.0
vt 1.0 0.0
vt 1.0 1.0
vt 0.0 0.0
vt 1.0 0.0
vt 0.0 1.0
vt 0.0 1.0
vt 1.0 0.0
vt 1.0 1.0
vt 0.0 0.0
vt 1.0 0.0
vt 0.0 1.0
vt 0.0 1.0
vt 1.0 0.0
vt 1.0 1.0
vt 0.0 0.0
vt 1.0 0.0
vt 0.0 1.0
vt 0.0 1.0
vt 1.0 0.0
vt 1.0 1.0
vt 0.0 0.0
vt 1.0 0.0
vt 0.0 1.0
vt 0.0 1.0
vt 1.0 0.0
vt 1.0 1.0
vt 0.0 0.0
vt 1.0 0.0
vt 0.0 1.0
vt 0.0 1.0
vt 1.0 0.0
vt 1.0 1.0
vt 0.0 0.0
vt 1.0 0.0
vt 0.0 1.0
vt 0.0 1.0
vt 1.0 0.0
vt 1.0 1.0
vt 0.0 0.0
vt 1.0 0.0
vt 0.0 1.0
vt 0.0 1.0
vt 1.0 0.0
vt 1.0 1.0
vt 0.0 0.0
vt 1.0 0.0
vt 0.0 1.0
vt 0.0 1.0
vt 1.0 0.0
vt 1.0 1.0
vt 0.0 0.0
vt 1.0 0.0
vt 0.0 1.0
vt 0.0 1.0
vt 1.0 0.0
vt 1.0 1.0
vt 0.0 0.0
vt 1.0 0.0
vt 0.0 1.0
vt 0.0 1.0
vt 1.0 0.0
vt 1.0 1.0
vt 0.0 0.0
vt 1.0 0.0
vt 0.0 1.0
vt 0.0 1.0
vt 1.0 0.0
vt 1.0 1.0
vt 0.0 0.0
vt 1.0 0.0
vt 0.0 1.0
vt 0.0 1.0
vt 1.0 0.0
vt 1.0 1.0
vt 0.0 0.0
vt 1.0 0.0
vt 0.0 1.0
vt 0.0 1.0
vt 1.0 0.0
vt 1.0 1.0
vt 0.0 0.0
vt 1.0 0.0
vt 0.0 1.0

# 84 Vertex Normals
vn -0.693068 0.720844 -0.006389
vn -0.693068 0.720844 -0.006389
vn -0.693068 0.720844 -0.006389
vn -0.693068 0.720844 -0.006389
vn -0.693068 0.720844 -0.006389
vn -0.693068 0.720844 -0.006389
vn 0.0 -0.0 1.0
vn 0.0 -0.0 1.0
vn 0.0 -0.0 1.0
vn 0.0 -0.0 1.0
vn 0.0 -0.0 1.0
vn 0.0 -0.0 1.0
vn -0.99998 0.0 -0.006324
vn -0.99998 0.0 -0.006324
vn -0.99998 0.0 -0.006324
vn -0.99998 0.0 -0.006324
vn -0.99998 0.0 -0.006324
vn -0.99998 0.0 -0.006324
vn -0.912173 0.409755 -0.006345
vn -0.912173 0.409755 -0.006345
vn -0.912173 0.409755 -0.006345
vn -0.912173 0.409755 -0.006345
vn -0.912173 0.409755 -0.006345
vn -0.912173 0.409755 -0.006345
vn -0.008209 0.416352 0.909166
vn -0.008209 0.416352 0.909166
vn -0.008209 0.416352 0.909166
vn -0.008209 0.416352 0.909166
vn -0.008209 0.416352 0.909166
vn -0.008209 0.416352 0.909166
vn 0.912193 0.409755 0.00236
vn 0.912193 0.409755 0.00236
vn 0.912193 0.409755 0.00236
vn 0.912193 0.409755 0.00236
vn 0.912193 0.409755 0.00236
vn 0.912193 0.409755 0.00236
vn 0.006587 0.416353 -0.909179
vn 0.006587 0.416353 -0.909179
vn 0.006588 0.416352 -0.909179
vn 0.006587 0.416353 -0.909179
vn 0.006587 0.416353 -0.909179
vn 0.006587 0.416353 -0.909179
vn -0.000575 0.68739 0.726288
vn -0.000575 0.68739 0.726288
vn -0.000575 0.68739 0.726288
vn -0.000575 0.68739 0.726288
vn -0.000575 0.68739 0.726288
vn -0.000575 0.68739 0.726288
vn 0.697666 0.716323 0.012001
vn 0.697666 0.716323 0.012001
vn 0.697666 0.716323 0.012001
vn 0.697666 0.716323 0.012001
vn 0.697666 0.716323 0.012001
vn 0.697666 0.716323 0.012001
vn -0.000153 0.685018 -0.728526
vn -0.000153 0.685018 -0.728526
vn -0.000153 0.685018 -0.728526
vn -0.000153 0.685018 -0.728526
vn -0.000153 0.685018 -0.728526
vn -0.000153 0.685018 -0.728526
vn -0.302974 0.904651 0.29969
vn -0.302974 0.904651 0.29969
vn -0.302974 0.904651 0.29969
vn -0.302974 0.904651 0.29969
vn -0.302974 0.904651 0.29969
vn -0.302974 0.904651 0.29969
vn 0.302247 0.904658 0.3004
vn 0.302247 0.904658 0.3004
vn 0.302247 0.904658 0.3004
vn 0.302247 0.904658 0.3004
vn 0.302247 0.904658 0.3004
vn 0.302247 0.904658 0.3004
vn 0.29284 0.904755 -0.309296
vn 0.29284 0.904755 -0.309296
vn 0.29284 0.904754 -0.309296
vn 0.29284 0.904755 -0.309296
vn 0.29284 0.904755 -0.309296
vn 0.29284 0.904755 -0.309296
vn -0.299686 0.904685 -0.302875
vn -0.299686 0.904685 -0.302875
vn -0.299686 0.904685 -0.302875
vn -0.299686 0.904685 -0.302875
vn -0.299686 0.904685 -0.302875
vn -0.299686 0.904685 -0.302875

# Bush_01, 28 grouped triangles

usemtl Bush_00
o Bush_01
g Bush_01

f 1/1/1 4/2/2 3/3/3
f 2/4/4 4/5/5 1/6/6
f 5/7/7 8/8/8 7/9/9
f 6/10/10 8/11/11 5/12/12
f 9/13/13 12/14/14 11/15/15
f 10/16/16 12/17/17 9/18/18
f 13/19/19 16/20/20 15/21/21
f 14/22/22 16/23/23 13/24/24
f 17/25/25 20/26/26 19/27/27
f 18/28/28 20/29/29 17/30/30
f 21/31/31 24/32/32 23/33/33
f 22/34/34 24/35/35 21/36/36
f 25/37/37 28/38/38 27/39/39
f 26/40/40 28/41/41 25/42/42
f 29/43/43 32/44/44 31/45/45
f 30/46/46 32/47/47 29/48/48
f 33/49/49 36/50/50 35/51/51
f 34/52/52 36/53/53 33/54/54
f 37/55/55 40/56/56 39/57/57
f 38/58/58 40/59/59 37/60/60
f 41/61/61 44/62/62 43/63/63
f 42/64/64 44/65/65 41/66/66
f 45/67/67 48/68/68 47/69/69
f 46/70/70 48/71/71 45/72/72
f 49/73/73 52/74/74 51/75/75
f 50/76/76 52/77/77 49/78/78
f 53/79/79 56/80/80 55/81/81
f 54/82/82 56/83/83 53/84/84
