{
  "accessors": [
    {
      "bufferView": 2,
      "componentType": 5126,
      "count": 2561,
      "max": [
        1.7896136045455933,
        1.7914831638336182,
        14.237320899963379
      ],
      "min": [
        -1.526045799255371,
        -1.255644679069519,
        -0.1290426254272461
      ],
      "type": "VEC3"
    },
    {
      "bufferView": 2,
      "byteOffset": 30732,
      "componentType": 5126,
      "count": 2561,
      "max": [
        0.9848077297210693,
        0.9910587668418884,
        1.0
      ],
      "min": [
        -1.0,
        -1.0,
        -1.0
      ],
      "type": "VEC3"
    },
    {
      "bufferView": 1,
      "componentType": 5126,
      "count": 2561,
      "max": [
        2.7520651817321777,
        2.2569186687469482
      ],
      "min": [
        -1.7520651817321777,
        -1.4362924098968506
      ],
      "type": "VEC2"
    },
    {
      "bufferView": 0,
      "componentType": 5125,
      "count": 4293,
      "type": "SCALAR"
    },
    {
      "bufferView": 2,
      "byteOffset": 61464,
      "componentType": 5126,
      "count": 2048,
      "max": [
        3.925236940383911,
        4.068953990936279,
        14.126169204711914
      ],
      "min": [
        -4.0261383056640625,
        -4.032886028289795,
        8.51141357421875
      ],
      "type": "VEC3"
    },
    {
      "bufferView": 2,
      "byteOffset": 86040,
      "componentType": 5126,
      "count": 2048,
      "max": [
        0.28208038210868835,
        0.28208139538764954,
        0.9966955780982971
      ],
      "min": [
        -0.2820780277252197,
        -0.28208112716674805,
        0.9593898057937622
      ],
      "type": "VEC3"
    },
    {
      "bufferView": 1,
      "byteOffset": 20488,
      "componentType": 5126,
      "count": 2048,
      "max": [
        1.0,
        1.0
      ],
      "min": [
        0.0,
        0.0
      ],
      "type": "VEC2"
    },
    {
      "bufferView": 0,
      "byteOffset": 17172,
      "componentType": 5125,
      "count": 3072,
      "type": "SCALAR"
    }
  ],
  "asset": {
    "extras": {
      "author": "bloodredhawk236 (https://sketchfab.com/ImRedHawk)",
      "license": "CC-BY-4.0 (http://creativecommons.org/licenses/by/4.0/)",
      "source": "https://sketchfab.com/3d-models/tall-coniferous-fir-variant-low-poly-f9773454dd354079bd2e67fcb0d847ee",
      "title": "Tall Coniferous (Fir Variant) (Low Poly)"
    },
    "generator": "Sketchfab-15.47.0",
    "version": "2.0"
  },
  "bufferViews": [
    {
      "buffer": 0,
      "byteLength": 29460,
      "name": "floatBufferViews",
      "target": 34963
    },
    {
      "buffer": 0,
      "byteLength": 36872,
      "byteOffset": 29460,
      "byteStride": 8,
      "name": "floatBufferViews",
      "target": 34962
    },
    {
      "buffer": 0,
      "byteLength": 110616,
      "byteOffset": 66332,
      "byteStride": 12,
      "name": "floatBufferViews",
      "target": 34962
    }
  ],
  "buffers": [
    {
      "byteLength": 176948,
      "uri": "scene.bin"
    }
  ],
  "extensionsUsed": [
    "KHR_materials_specular"
  ],
  "images": [
    {
      "uri": "textures/Material.002_baseColor.png"
    },
    {
      "uri": "textures/Material.009_baseColor.png"
    }
  ],
  "materials": [
    {
      "doubleSided": true,
      "extensions": {
        "KHR_materials_specular": {
          "specularColorFactor": [
            1.0,
            1.0,
            1.0
          ],
          "specularFactor": 0.07161926588728651
        }
      },
      "name": "Material.002",
      "pbrMetallicRoughness": {
        "baseColorTexture": {
          "index": 0
        },
        "metallicFactor": 0.0
      }
    },
    {
      "doubleSided": true,
      "extensions": {
        "KHR_materials_specular": {
          "specularColorFactor": [
            1.0,
            1.0,
            1.0
          ],
          "specularFactor": 0.0
        }
      },
      "name": "Material.009",
      "pbrMetallicRoughness": {
        "baseColorTexture": {
          "index": 1
        },
        "metallicFactor": 0.0,
        "roughnessFactor": 0.8040408205773457
      }
    }
  ],
  "meshes": [
    {
      "name": "Cylinder.002_Material.002_0",
      "primitives": [
        {
          "attributes": {
            "NORMAL": 1,
            "POSITION": 0,
            "TEXCOORD_0": 2
          },
          "indices": 3,
          "material": 0,
          "mode": 4
        }
      ]
    },
    {
      "name": "Cylinder.002_Material.009_0",
      "primitives": [
        {
          "attributes": {
            "NORMAL": 5,
            "POSITION": 4,
            "TEXCOORD_0": 6
          },
          "indices": 7,
          "material": 1,
          "mode": 4
        }
      ]
    }
  ],
  "nodes": [
    {
      "children": [
        1
      ],
      "matrix": [
        0.36166658997535706,
        0.0,
        0.0,
        0.0,
        0.0,
        8.030611508566145e-17,
        -0.36166658997535706,
        0.0,
        0.0,
        0.36166658997535706,
        8.030611508566145e-17,
        0.0,
        0.0,
        0.0,
        0.0,
        1.0
      ],
      "name": "Sketchfab_model"
    },
    {
      "children": [
        2
      ],
      "matrix": [
        0.009999999776482582,
        0.0,
        0.0,
        0.0,
        0.0,
        0.0,
        0.009999999776482582,
        0.0,
        0.0,
        -0.009999999776482582,
        0.0,
        0.0,
        0.0,
        0.0,
        0.0,
        1.0
      ],
      "name": "Tallconiferous-02.fbx"
    },
    {
      "children": [
        3
      ],
      "name": "RootNode"
    },
    {
      "children": [
        4,
        5
      ],
      "matrix": [
        100.0,
        0.0,
        0.0,
        0.0,
        0.0,
        -1.629206793918314e-05,
        -99.99999999999868,
        0.0,
        0.0,
        99.99999999999868,
        -1.629206793918314e-05,
        0.0,
        0.0,
        0.0,
        971.091552734375,
        1.0
      ],
      "name": "Cylinder.002"
    },
    {
      "mesh": 0,
      "name": "Cylinder.002_Material.002_0"
    },
    {
      "mesh": 1,
      "name": "Cylinder.002_Material.009_0"
    }
  ],
  "samplers": [
    {
      "magFilter": 9728,
      "minFilter": 9986,
      "wrapS": 10497,
      "wrapT": 10497
    }
  ],
  "scene": 0,
  "scenes": [
    {
      "name": "Sketchfab_Scene",
      "nodes": [
        0
      ]
    }
  ],
  "textures": [
    {
      "sampler": 0,
      "source": 0
    },
    {
      "sampler": 0,
      "source": 1
    }
  ]
}
